<mxfile host="app.diagrams.net" modified="2022-10-24T08:24:08.797Z" agent="5.0 (Windows NT 6.3; Win64; x64) AppleWebKit/537.36 (KHTML, like Gecko) Chrome/106.0.0.0 Safari/537.36" etag="SXRTZhhL3dZxldKKmxhF" version="20.5.1" type="github">
  <diagram id="C5RBs43oDa-KdzZeNtuy" name="Page-1">
    <mxGraphModel dx="1021" dy="567" grid="1" gridSize="5" guides="1" tooltips="1" connect="1" arrows="1" fold="1" page="1" pageScale="1" pageWidth="1169" pageHeight="827" math="0" shadow="0">
      <root>
        <mxCell id="WIyWlLk6GJQsqaUBKTNV-0" />
        <mxCell id="WIyWlLk6GJQsqaUBKTNV-1" parent="WIyWlLk6GJQsqaUBKTNV-0" />
        <mxCell id="8EcOTREGMyz1jMZO3tZU-0" value="Bisnis Proses Sales" style="text;html=1;align=center;verticalAlign=middle;resizable=0;points=[];autosize=1;strokeColor=none;fillColor=none;fontStyle=1;fontSize=20;" parent="WIyWlLk6GJQsqaUBKTNV-1" vertex="1">
          <mxGeometry x="610" y="30" width="210" height="40" as="geometry" />
        </mxCell>
        <mxCell id="8EcOTREGMyz1jMZO3tZU-26" style="edgeStyle=orthogonalEdgeStyle;rounded=0;orthogonalLoop=1;jettySize=auto;html=1;exitX=0.5;exitY=1;exitDx=0;exitDy=0;entryX=0.5;entryY=0;entryDx=0;entryDy=0;fontSize=13;" parent="WIyWlLk6GJQsqaUBKTNV-1" source="8EcOTREGMyz1jMZO3tZU-5" target="8EcOTREGMyz1jMZO3tZU-7" edge="1">
          <mxGeometry relative="1" as="geometry" />
        </mxCell>
        <mxCell id="8EcOTREGMyz1jMZO3tZU-5" value="START" style="verticalLabelPosition=middle;verticalAlign=middle;html=1;shape=hexagon;perimeter=hexagonPerimeter2;arcSize=6;size=0.27;fontSize=20;labelPosition=center;align=center;fillColor=#F79E05;strokeColor=#A50040;fontColor=#ffffff;" parent="WIyWlLk6GJQsqaUBKTNV-1" vertex="1">
          <mxGeometry x="190" y="125" width="100" height="79" as="geometry" />
        </mxCell>
        <mxCell id="8EcOTREGMyz1jMZO3tZU-10" value="" style="edgeStyle=orthogonalEdgeStyle;rounded=0;orthogonalLoop=1;jettySize=auto;html=1;fontSize=13;" parent="WIyWlLk6GJQsqaUBKTNV-1" source="8EcOTREGMyz1jMZO3tZU-7" target="8EcOTREGMyz1jMZO3tZU-9" edge="1">
          <mxGeometry relative="1" as="geometry" />
        </mxCell>
        <mxCell id="8EcOTREGMyz1jMZO3tZU-7" value="Receive&amp;nbsp; Enquiry from Customer" style="rounded=1;whiteSpace=wrap;html=1;absoluteArcSize=1;arcSize=14;strokeWidth=1;fontSize=13;fillColor=#60a917;fontColor=#ffffff;strokeColor=#2D7600;" parent="WIyWlLk6GJQsqaUBKTNV-1" vertex="1">
          <mxGeometry x="180" y="260" width="120" height="60" as="geometry" />
        </mxCell>
        <mxCell id="8EcOTREGMyz1jMZO3tZU-16" value="Yes" style="edgeStyle=orthogonalEdgeStyle;rounded=0;orthogonalLoop=1;jettySize=auto;html=1;fontSize=13;" parent="WIyWlLk6GJQsqaUBKTNV-1" source="8EcOTREGMyz1jMZO3tZU-9" target="8EcOTREGMyz1jMZO3tZU-15" edge="1">
          <mxGeometry relative="1" as="geometry" />
        </mxCell>
        <mxCell id="8EcOTREGMyz1jMZO3tZU-20" value="No" style="edgeStyle=orthogonalEdgeStyle;rounded=0;orthogonalLoop=1;jettySize=auto;html=1;fontSize=13;" parent="WIyWlLk6GJQsqaUBKTNV-1" source="8EcOTREGMyz1jMZO3tZU-9" target="8EcOTREGMyz1jMZO3tZU-19" edge="1">
          <mxGeometry x="-0.1667" relative="1" as="geometry">
            <mxPoint x="-1" as="offset" />
          </mxGeometry>
        </mxCell>
        <mxCell id="8EcOTREGMyz1jMZO3tZU-9" value="Customer&lt;br&gt;&amp;nbsp;in SF LIst ?" style="rhombus;whiteSpace=wrap;html=1;fontSize=12;rounded=1;arcSize=14;strokeWidth=1;fillColor=#d80073;fontColor=#ffffff;strokeColor=#A50040;" parent="WIyWlLk6GJQsqaUBKTNV-1" vertex="1">
          <mxGeometry x="190" y="390" width="100" height="100" as="geometry" />
        </mxCell>
        <mxCell id="8EcOTREGMyz1jMZO3tZU-18" value="" style="edgeStyle=orthogonalEdgeStyle;rounded=0;orthogonalLoop=1;jettySize=auto;html=1;fontSize=13;" parent="WIyWlLk6GJQsqaUBKTNV-1" source="8EcOTREGMyz1jMZO3tZU-15" target="8EcOTREGMyz1jMZO3tZU-17" edge="1">
          <mxGeometry relative="1" as="geometry" />
        </mxCell>
        <mxCell id="8EcOTREGMyz1jMZO3tZU-15" value="Create Opportunity in SF" style="rounded=1;whiteSpace=wrap;html=1;fontSize=13;arcSize=14;strokeWidth=1;fillColor=#60a917;strokeColor=#2D7600;fontColor=#ffffff;" parent="WIyWlLk6GJQsqaUBKTNV-1" vertex="1">
          <mxGeometry x="180" y="555" width="120" height="60" as="geometry" />
        </mxCell>
        <mxCell id="8EcOTREGMyz1jMZO3tZU-27" style="edgeStyle=orthogonalEdgeStyle;rounded=0;orthogonalLoop=1;jettySize=auto;html=1;exitX=0.5;exitY=1;exitDx=0;exitDy=0;entryX=0;entryY=0.5;entryDx=0;entryDy=0;fontSize=13;" parent="WIyWlLk6GJQsqaUBKTNV-1" source="Bv1pG6rDbhh4RcwNzwZb-11" target="8EcOTREGMyz1jMZO3tZU-24" edge="1">
          <mxGeometry relative="1" as="geometry" />
        </mxCell>
        <mxCell id="Bv1pG6rDbhh4RcwNzwZb-12" value="" style="edgeStyle=none;rounded=0;orthogonalLoop=1;jettySize=auto;html=1;fontFamily=Helvetica;fontSize=12;fontColor=#FFFFFF;" parent="WIyWlLk6GJQsqaUBKTNV-1" source="8EcOTREGMyz1jMZO3tZU-17" target="Bv1pG6rDbhh4RcwNzwZb-11" edge="1">
          <mxGeometry relative="1" as="geometry" />
        </mxCell>
        <mxCell id="8EcOTREGMyz1jMZO3tZU-17" value="Upload Enquery File into SF Opportunity" style="rounded=1;whiteSpace=wrap;html=1;fontSize=12;arcSize=14;strokeWidth=1;fillColor=#60a917;fontColor=#ffffff;strokeColor=#2D7600;" parent="WIyWlLk6GJQsqaUBKTNV-1" vertex="1">
          <mxGeometry x="180" y="700" width="120" height="60" as="geometry" />
        </mxCell>
        <mxCell id="8EcOTREGMyz1jMZO3tZU-22" value="" style="edgeStyle=orthogonalEdgeStyle;rounded=0;orthogonalLoop=1;jettySize=auto;html=1;fontSize=13;" parent="WIyWlLk6GJQsqaUBKTNV-1" source="8EcOTREGMyz1jMZO3tZU-19" target="8EcOTREGMyz1jMZO3tZU-21" edge="1">
          <mxGeometry relative="1" as="geometry" />
        </mxCell>
        <mxCell id="8EcOTREGMyz1jMZO3tZU-19" value="Create new Lead &amp;amp; Request Sales Admin for Approval" style="whiteSpace=wrap;html=1;fontSize=13;rounded=1;arcSize=14;strokeWidth=1;fillColor=#60a917;fontColor=#ffffff;strokeColor=#2D7600;" parent="WIyWlLk6GJQsqaUBKTNV-1" vertex="1">
          <mxGeometry x="10" y="410" width="120" height="60" as="geometry" />
        </mxCell>
        <mxCell id="8EcOTREGMyz1jMZO3tZU-23" style="edgeStyle=orthogonalEdgeStyle;rounded=0;orthogonalLoop=1;jettySize=auto;html=1;entryX=0;entryY=0.5;entryDx=0;entryDy=0;fontSize=13;" parent="WIyWlLk6GJQsqaUBKTNV-1" source="8EcOTREGMyz1jMZO3tZU-21" target="8EcOTREGMyz1jMZO3tZU-15" edge="1">
          <mxGeometry relative="1" as="geometry" />
        </mxCell>
        <mxCell id="8EcOTREGMyz1jMZO3tZU-21" value="Sales Admin Convert Lead to Customer" style="rounded=1;whiteSpace=wrap;html=1;fontSize=13;arcSize=14;strokeWidth=1;fillColor=#60a917;fontColor=#ffffff;strokeColor=#2D7600;" parent="WIyWlLk6GJQsqaUBKTNV-1" vertex="1">
          <mxGeometry x="10" y="555" width="120" height="60" as="geometry" />
        </mxCell>
        <mxCell id="8EcOTREGMyz1jMZO3tZU-29" value="" style="edgeStyle=orthogonalEdgeStyle;rounded=0;orthogonalLoop=1;jettySize=auto;html=1;fontSize=13;" parent="WIyWlLk6GJQsqaUBKTNV-1" source="8EcOTREGMyz1jMZO3tZU-24" target="8EcOTREGMyz1jMZO3tZU-28" edge="1">
          <mxGeometry relative="1" as="geometry" />
        </mxCell>
        <mxCell id="8EcOTREGMyz1jMZO3tZU-24" value="AE Create Quote Page in SF" style="rounded=1;whiteSpace=wrap;html=1;fontSize=13;arcSize=14;strokeWidth=1;fillColor=#1ba1e2;fontColor=#ffffff;strokeColor=#006EAF;" parent="WIyWlLk6GJQsqaUBKTNV-1" vertex="1">
          <mxGeometry x="420" y="130" width="120" height="60" as="geometry" />
        </mxCell>
        <mxCell id="8EcOTREGMyz1jMZO3tZU-31" value="" style="edgeStyle=orthogonalEdgeStyle;rounded=0;orthogonalLoop=1;jettySize=auto;html=1;fontSize=13;" parent="WIyWlLk6GJQsqaUBKTNV-1" source="8EcOTREGMyz1jMZO3tZU-28" target="8EcOTREGMyz1jMZO3tZU-30" edge="1">
          <mxGeometry relative="1" as="geometry" />
        </mxCell>
        <mxCell id="8EcOTREGMyz1jMZO3tZU-28" value="AE Create Quote Line Item in SF" style="rounded=1;whiteSpace=wrap;html=1;fontSize=13;arcSize=14;strokeWidth=1;fillColor=#1ba1e2;fontColor=#ffffff;strokeColor=#006EAF;" parent="WIyWlLk6GJQsqaUBKTNV-1" vertex="1">
          <mxGeometry x="420" y="270" width="120" height="60" as="geometry" />
        </mxCell>
        <mxCell id="8EcOTREGMyz1jMZO3tZU-36" style="edgeStyle=orthogonalEdgeStyle;rounded=0;orthogonalLoop=1;jettySize=auto;html=1;exitX=0.5;exitY=1;exitDx=0;exitDy=0;entryX=0;entryY=0.5;entryDx=0;entryDy=0;fontSize=13;" parent="WIyWlLk6GJQsqaUBKTNV-1" source="8EcOTREGMyz1jMZO3tZU-30" target="8EcOTREGMyz1jMZO3tZU-34" edge="1">
          <mxGeometry relative="1" as="geometry" />
        </mxCell>
        <mxCell id="8EcOTREGMyz1jMZO3tZU-30" value="AE Send Quote SF to Sales" style="rounded=1;whiteSpace=wrap;html=1;fontSize=13;arcSize=14;strokeWidth=1;fillColor=#1ba1e2;fontColor=#ffffff;strokeColor=#006EAF;" parent="WIyWlLk6GJQsqaUBKTNV-1" vertex="1">
          <mxGeometry x="420" y="410" width="120" height="60" as="geometry" />
        </mxCell>
        <mxCell id="8EcOTREGMyz1jMZO3tZU-38" value="" style="edgeStyle=orthogonalEdgeStyle;rounded=0;orthogonalLoop=1;jettySize=auto;html=1;fontSize=13;" parent="WIyWlLk6GJQsqaUBKTNV-1" source="8EcOTREGMyz1jMZO3tZU-34" target="8EcOTREGMyz1jMZO3tZU-37" edge="1">
          <mxGeometry relative="1" as="geometry" />
        </mxCell>
        <mxCell id="8EcOTREGMyz1jMZO3tZU-34" value="Receive Quote SF from AE" style="whiteSpace=wrap;html=1;fontSize=13;rounded=1;arcSize=14;strokeWidth=1;fillColor=#60a917;fontColor=#ffffff;strokeColor=#2D7600;" parent="WIyWlLk6GJQsqaUBKTNV-1" vertex="1">
          <mxGeometry x="620" y="460" width="120" height="60" as="geometry" />
        </mxCell>
        <mxCell id="JqkhvgP3lDVbGr0tkGKe-7" value="" style="edgeStyle=orthogonalEdgeStyle;rounded=0;orthogonalLoop=1;jettySize=auto;html=1;" edge="1" parent="WIyWlLk6GJQsqaUBKTNV-1" source="8EcOTREGMyz1jMZO3tZU-37" target="JqkhvgP3lDVbGr0tkGKe-0">
          <mxGeometry relative="1" as="geometry" />
        </mxCell>
        <mxCell id="8EcOTREGMyz1jMZO3tZU-37" value="Input Sales Price In Qote Line Item" style="whiteSpace=wrap;html=1;fontSize=13;rounded=1;arcSize=14;strokeWidth=1;fillColor=#60a917;fontColor=#ffffff;strokeColor=#2D7600;" parent="WIyWlLk6GJQsqaUBKTNV-1" vertex="1">
          <mxGeometry x="620" y="555" width="120" height="60" as="geometry" />
        </mxCell>
        <mxCell id="8EcOTREGMyz1jMZO3tZU-47" value="No" style="edgeStyle=elbowEdgeStyle;rounded=0;orthogonalLoop=1;jettySize=auto;elbow=vertical;html=1;fontSize=13;" parent="WIyWlLk6GJQsqaUBKTNV-1" source="8EcOTREGMyz1jMZO3tZU-39" target="8EcOTREGMyz1jMZO3tZU-46" edge="1">
          <mxGeometry relative="1" as="geometry" />
        </mxCell>
        <mxCell id="8EcOTREGMyz1jMZO3tZU-49" value="Yes" style="edgeStyle=elbowEdgeStyle;rounded=0;orthogonalLoop=1;jettySize=auto;elbow=vertical;html=1;fontSize=13;" parent="WIyWlLk6GJQsqaUBKTNV-1" source="8EcOTREGMyz1jMZO3tZU-39" target="8EcOTREGMyz1jMZO3tZU-48" edge="1">
          <mxGeometry relative="1" as="geometry" />
        </mxCell>
        <mxCell id="Bv1pG6rDbhh4RcwNzwZb-2" style="edgeStyle=none;rounded=0;orthogonalLoop=1;jettySize=auto;html=1;exitX=0.5;exitY=1;exitDx=0;exitDy=0;entryX=0.5;entryY=0;entryDx=0;entryDy=0;fontFamily=Helvetica;fontSize=12;fontColor=#FFFFFF;" parent="WIyWlLk6GJQsqaUBKTNV-1" source="8EcOTREGMyz1jMZO3tZU-46" target="Bv1pG6rDbhh4RcwNzwZb-0" edge="1">
          <mxGeometry relative="1" as="geometry" />
        </mxCell>
        <mxCell id="8EcOTREGMyz1jMZO3tZU-46" value="Submit Quotetion for Management&#39;s Approval in SF" style="whiteSpace=wrap;html=1;fontSize=13;rounded=1;arcSize=14;strokeWidth=1;fillColor=#60a917;fontColor=#ffffff;strokeColor=#2D7600;" parent="WIyWlLk6GJQsqaUBKTNV-1" vertex="1">
          <mxGeometry x="525" y="890" width="120" height="60" as="geometry" />
        </mxCell>
        <mxCell id="JqkhvgP3lDVbGr0tkGKe-20" style="edgeStyle=none;rounded=0;orthogonalLoop=1;jettySize=auto;html=1;exitX=0.5;exitY=1;exitDx=0;exitDy=0;entryX=0.5;entryY=0;entryDx=0;entryDy=0;" edge="1" parent="WIyWlLk6GJQsqaUBKTNV-1" source="8EcOTREGMyz1jMZO3tZU-48" target="0KOkeijIJ7gyHbX02i4s-0">
          <mxGeometry relative="1" as="geometry" />
        </mxCell>
        <mxCell id="8EcOTREGMyz1jMZO3tZU-48" value="Start Sync Quote in SF" style="whiteSpace=wrap;html=1;fontSize=13;rounded=1;arcSize=14;strokeWidth=1;fillColor=#60a917;fontColor=#ffffff;strokeColor=#2D7600;" parent="WIyWlLk6GJQsqaUBKTNV-1" vertex="1">
          <mxGeometry x="720" y="890" width="120" height="55" as="geometry" />
        </mxCell>
        <mxCell id="CEy67A7VbpGF-3hFrqcU-10" value="Yes" style="edgeStyle=orthogonalEdgeStyle;rounded=0;orthogonalLoop=1;jettySize=auto;html=1;elbow=vertical;" parent="WIyWlLk6GJQsqaUBKTNV-1" source="CEy67A7VbpGF-3hFrqcU-6" target="CEy67A7VbpGF-3hFrqcU-9" edge="1">
          <mxGeometry relative="1" as="geometry" />
        </mxCell>
        <mxCell id="CEy67A7VbpGF-3hFrqcU-20" value="No" style="edgeStyle=orthogonalEdgeStyle;rounded=0;orthogonalLoop=1;jettySize=auto;html=1;elbow=vertical;" parent="WIyWlLk6GJQsqaUBKTNV-1" source="CEy67A7VbpGF-3hFrqcU-6" target="CEy67A7VbpGF-3hFrqcU-19" edge="1">
          <mxGeometry relative="1" as="geometry" />
        </mxCell>
        <mxCell id="CEy67A7VbpGF-3hFrqcU-6" value="Deal PO ?" style="rhombus;whiteSpace=wrap;html=1;fontSize=13;rounded=1;arcSize=14;strokeWidth=1;fillColor=#d80073;fontColor=#ffffff;strokeColor=#A50040;" parent="WIyWlLk6GJQsqaUBKTNV-1" vertex="1">
          <mxGeometry x="1015" y="113.5" width="100" height="93" as="geometry" />
        </mxCell>
        <mxCell id="Bv1pG6rDbhh4RcwNzwZb-9" style="edgeStyle=none;rounded=0;orthogonalLoop=1;jettySize=auto;html=1;exitX=0.5;exitY=1;exitDx=0;exitDy=0;entryX=0.5;entryY=0;entryDx=0;entryDy=0;fontFamily=Helvetica;fontSize=12;fontColor=#1A1A1A;" parent="WIyWlLk6GJQsqaUBKTNV-1" source="CEy67A7VbpGF-3hFrqcU-9" target="Bv1pG6rDbhh4RcwNzwZb-7" edge="1">
          <mxGeometry relative="1" as="geometry" />
        </mxCell>
        <mxCell id="CEy67A7VbpGF-3hFrqcU-9" value="Upload Cust&#39;s PO&amp;nbsp;&lt;br&gt;into SF Quote" style="whiteSpace=wrap;html=1;fontSize=13;rounded=1;arcSize=14;strokeWidth=1;fillColor=#60a917;fontColor=#ffffff;strokeColor=#2D7600;" parent="WIyWlLk6GJQsqaUBKTNV-1" vertex="1">
          <mxGeometry x="1005" y="290" width="120" height="60" as="geometry" />
        </mxCell>
        <mxCell id="CEy67A7VbpGF-3hFrqcU-14" value="" style="edgeStyle=orthogonalEdgeStyle;rounded=0;orthogonalLoop=1;jettySize=auto;html=1;elbow=vertical;" parent="WIyWlLk6GJQsqaUBKTNV-1" source="CEy67A7VbpGF-3hFrqcU-11" target="CEy67A7VbpGF-3hFrqcU-13" edge="1">
          <mxGeometry relative="1" as="geometry" />
        </mxCell>
        <mxCell id="CEy67A7VbpGF-3hFrqcU-11" value="Input Cust PO Number &amp;amp; SO Manual Number in SF Quote" style="whiteSpace=wrap;html=1;fontSize=13;rounded=1;arcSize=14;strokeWidth=1;fillColor=#60a917;fontColor=#ffffff;strokeColor=#2D7600;" parent="WIyWlLk6GJQsqaUBKTNV-1" vertex="1">
          <mxGeometry x="1005" y="555" width="120" height="90" as="geometry" />
        </mxCell>
        <mxCell id="JqkhvgP3lDVbGr0tkGKe-15" style="edgeStyle=orthogonalEdgeStyle;rounded=0;orthogonalLoop=1;jettySize=auto;html=1;exitX=0.5;exitY=1;exitDx=0;exitDy=0;" edge="1" parent="WIyWlLk6GJQsqaUBKTNV-1" source="CEy67A7VbpGF-3hFrqcU-13" target="JqkhvgP3lDVbGr0tkGKe-6">
          <mxGeometry relative="1" as="geometry" />
        </mxCell>
        <mxCell id="CEy67A7VbpGF-3hFrqcU-13" value="Submit Approval for SO in SF" style="whiteSpace=wrap;html=1;fontSize=13;rounded=1;arcSize=14;strokeWidth=1;fillColor=#60a917;fontColor=#ffffff;strokeColor=#2D7600;" parent="WIyWlLk6GJQsqaUBKTNV-1" vertex="1">
          <mxGeometry x="1005" y="725" width="120" height="60" as="geometry" />
        </mxCell>
        <mxCell id="CEy67A7VbpGF-3hFrqcU-18" value="" style="edgeStyle=orthogonalEdgeStyle;rounded=0;orthogonalLoop=1;jettySize=auto;html=1;elbow=vertical;" parent="WIyWlLk6GJQsqaUBKTNV-1" source="CEy67A7VbpGF-3hFrqcU-15" target="CEy67A7VbpGF-3hFrqcU-17" edge="1">
          <mxGeometry relative="1" as="geometry" />
        </mxCell>
        <mxCell id="CEy67A7VbpGF-3hFrqcU-15" value="Once AE Approve SO in SF, and SO Number has been Generated by AE Support&amp;nbsp;" style="whiteSpace=wrap;html=1;fontSize=11;rounded=1;arcSize=14;strokeWidth=1;fillColor=#76608a;fontColor=#ffffff;strokeColor=#432D57;" parent="WIyWlLk6GJQsqaUBKTNV-1" vertex="1">
          <mxGeometry x="995" y="1040" width="135" height="75" as="geometry" />
        </mxCell>
        <mxCell id="CEy67A7VbpGF-3hFrqcU-24" style="edgeStyle=orthogonalEdgeStyle;rounded=0;orthogonalLoop=1;jettySize=auto;html=1;exitX=0.5;exitY=1;exitDx=0;exitDy=0;entryX=0;entryY=0.5;entryDx=0;entryDy=0;" parent="WIyWlLk6GJQsqaUBKTNV-1" source="CEy67A7VbpGF-3hFrqcU-17" target="CEy67A7VbpGF-3hFrqcU-21" edge="1">
          <mxGeometry relative="1" as="geometry" />
        </mxCell>
        <mxCell id="CEy67A7VbpGF-3hFrqcU-17" value="Change Opportunity to &quot;Closed Won &quot;" style="whiteSpace=wrap;html=1;fontSize=13;rounded=1;arcSize=14;strokeWidth=1;fillColor=#60a917;fontColor=#ffffff;strokeColor=#2D7600;" parent="WIyWlLk6GJQsqaUBKTNV-1" vertex="1">
          <mxGeometry x="1002.5" y="1190" width="120" height="60" as="geometry" />
        </mxCell>
        <mxCell id="CEy67A7VbpGF-3hFrqcU-25" style="edgeStyle=orthogonalEdgeStyle;rounded=0;orthogonalLoop=1;jettySize=auto;html=1;exitX=0.5;exitY=1;exitDx=0;exitDy=0;entryX=0.5;entryY=0;entryDx=0;entryDy=0;" parent="WIyWlLk6GJQsqaUBKTNV-1" source="CEy67A7VbpGF-3hFrqcU-19" target="CEy67A7VbpGF-3hFrqcU-21" edge="1">
          <mxGeometry relative="1" as="geometry" />
        </mxCell>
        <mxCell id="CEy67A7VbpGF-3hFrqcU-19" value="Change Opportunity Stage to&lt;br&gt;&amp;nbsp;&quot;Closed Lost&quot;" style="whiteSpace=wrap;html=1;fontSize=13;rounded=1;arcSize=14;strokeWidth=1;fillColor=#60a917;fontColor=#ffffff;strokeColor=#2D7600;" parent="WIyWlLk6GJQsqaUBKTNV-1" vertex="1">
          <mxGeometry x="1265" y="130" width="120" height="60" as="geometry" />
        </mxCell>
        <mxCell id="CEy67A7VbpGF-3hFrqcU-21" value="FINISH" style="shape=hexagon;perimeter=hexagonPerimeter2;whiteSpace=wrap;html=1;fixedSize=1;fontSize=14;fillColor=#F79E05;fontColor=#FFFFFF;strokeColor=#C73500;" parent="WIyWlLk6GJQsqaUBKTNV-1" vertex="1">
          <mxGeometry x="1275" y="515" width="100" height="80" as="geometry" />
        </mxCell>
        <mxCell id="0KOkeijIJ7gyHbX02i4s-3" value="" style="edgeStyle=orthogonalEdgeStyle;rounded=0;orthogonalLoop=1;jettySize=auto;html=1;fontSize=13;" parent="WIyWlLk6GJQsqaUBKTNV-1" source="0KOkeijIJ7gyHbX02i4s-0" target="0KOkeijIJ7gyHbX02i4s-2" edge="1">
          <mxGeometry relative="1" as="geometry" />
        </mxCell>
        <mxCell id="0KOkeijIJ7gyHbX02i4s-0" value="Prevew Quote , end Export to pdf" style="whiteSpace=wrap;html=1;fontSize=13;rounded=1;arcSize=14;strokeWidth=1;align=center;fillColor=#60a917;fontColor=#ffffff;strokeColor=#2D7600;" parent="WIyWlLk6GJQsqaUBKTNV-1" vertex="1">
          <mxGeometry x="720" y="980" width="120" height="60" as="geometry" />
        </mxCell>
        <mxCell id="JqkhvgP3lDVbGr0tkGKe-22" style="edgeStyle=orthogonalEdgeStyle;rounded=0;orthogonalLoop=1;jettySize=auto;html=1;exitX=0.5;exitY=1;exitDx=0;exitDy=0;entryX=0;entryY=0.5;entryDx=0;entryDy=0;" edge="1" parent="WIyWlLk6GJQsqaUBKTNV-1" source="0KOkeijIJ7gyHbX02i4s-2" target="CEy67A7VbpGF-3hFrqcU-6">
          <mxGeometry relative="1" as="geometry">
            <Array as="points">
              <mxPoint x="785" y="1240" />
              <mxPoint x="870" y="1240" />
              <mxPoint x="870" y="160" />
            </Array>
          </mxGeometry>
        </mxCell>
        <mxCell id="0KOkeijIJ7gyHbX02i4s-2" value="Send Quotation to Customer" style="rounded=1;whiteSpace=wrap;html=1;fontSize=13;arcSize=14;strokeWidth=1;fillColor=#60a917;fontColor=#ffffff;strokeColor=#2D7600;" parent="WIyWlLk6GJQsqaUBKTNV-1" vertex="1">
          <mxGeometry x="720" y="1095" width="120" height="60" as="geometry" />
        </mxCell>
        <mxCell id="JqkhvgP3lDVbGr0tkGKe-10" value="No" style="edgeStyle=orthogonalEdgeStyle;rounded=0;orthogonalLoop=1;jettySize=auto;html=1;" edge="1" parent="WIyWlLk6GJQsqaUBKTNV-1" source="Bv1pG6rDbhh4RcwNzwZb-0" target="JqkhvgP3lDVbGr0tkGKe-9">
          <mxGeometry relative="1" as="geometry">
            <Array as="points">
              <mxPoint x="585" y="1160" />
              <mxPoint x="475" y="1160" />
            </Array>
          </mxGeometry>
        </mxCell>
        <mxCell id="JqkhvgP3lDVbGr0tkGKe-23" value="Yes" style="edgeStyle=orthogonalEdgeStyle;rounded=0;orthogonalLoop=1;jettySize=auto;html=1;exitX=0.5;exitY=1;exitDx=0;exitDy=0;entryX=0;entryY=0.5;entryDx=0;entryDy=0;" edge="1" parent="WIyWlLk6GJQsqaUBKTNV-1" source="Bv1pG6rDbhh4RcwNzwZb-0" target="8EcOTREGMyz1jMZO3tZU-48">
          <mxGeometry relative="1" as="geometry">
            <Array as="points">
              <mxPoint x="585" y="1160" />
              <mxPoint x="687" y="1160" />
              <mxPoint x="687" y="918" />
            </Array>
          </mxGeometry>
        </mxCell>
        <mxCell id="Bv1pG6rDbhh4RcwNzwZb-0" value="Management&#39;s&lt;br&gt;Approve this &lt;br&gt;Quotetion ?" style="rhombus;whiteSpace=wrap;html=1;fontSize=13;fillColor=#d80073;strokeColor=#A50040;fontColor=#ffffff;rounded=1;arcSize=14;strokeWidth=1;" parent="WIyWlLk6GJQsqaUBKTNV-1" vertex="1">
          <mxGeometry x="517" y="995" width="136" height="124" as="geometry" />
        </mxCell>
        <mxCell id="Bv1pG6rDbhh4RcwNzwZb-10" style="edgeStyle=none;rounded=0;orthogonalLoop=1;jettySize=auto;html=1;exitX=0.5;exitY=1;exitDx=0;exitDy=0;fontFamily=Helvetica;fontSize=12;fontColor=#1A1A1A;" parent="WIyWlLk6GJQsqaUBKTNV-1" source="Bv1pG6rDbhh4RcwNzwZb-7" target="CEy67A7VbpGF-3hFrqcU-11" edge="1">
          <mxGeometry relative="1" as="geometry" />
        </mxCell>
        <mxCell id="Bv1pG6rDbhh4RcwNzwZb-7" value="Set Delivery Item (Customer) in&lt;br&gt;Quote Line Item" style="whiteSpace=wrap;html=1;fontSize=13;fillColor=#60a917;strokeColor=#2D7600;fontColor=#ffffff;rounded=1;arcSize=14;strokeWidth=1;" parent="WIyWlLk6GJQsqaUBKTNV-1" vertex="1">
          <mxGeometry x="1005" y="405" width="120" height="60" as="geometry" />
        </mxCell>
        <mxCell id="Bv1pG6rDbhh4RcwNzwZb-11" value="Mention AE in Chatter to make a Quotetion" style="whiteSpace=wrap;html=1;fillColor=#60a917;strokeColor=#2D7600;fontColor=#ffffff;rounded=1;arcSize=14;strokeWidth=1;" parent="WIyWlLk6GJQsqaUBKTNV-1" vertex="1">
          <mxGeometry x="180" y="840" width="120" height="60" as="geometry" />
        </mxCell>
        <mxCell id="JqkhvgP3lDVbGr0tkGKe-12" style="edgeStyle=orthogonalEdgeStyle;rounded=0;orthogonalLoop=1;jettySize=auto;html=1;exitX=0.5;exitY=1;exitDx=0;exitDy=0;" edge="1" parent="WIyWlLk6GJQsqaUBKTNV-1" source="JqkhvgP3lDVbGr0tkGKe-0" target="8EcOTREGMyz1jMZO3tZU-39">
          <mxGeometry relative="1" as="geometry" />
        </mxCell>
        <mxCell id="JqkhvgP3lDVbGr0tkGKe-0" value="Submit for Approval" style="whiteSpace=wrap;html=1;fontSize=13;fillColor=#60a917;strokeColor=#2D7600;fontColor=#ffffff;rounded=1;arcSize=14;strokeWidth=1;" vertex="1" parent="WIyWlLk6GJQsqaUBKTNV-1">
          <mxGeometry x="620" y="655" width="120" height="60" as="geometry" />
        </mxCell>
        <mxCell id="8EcOTREGMyz1jMZO3tZU-39" value="Discount&lt;br&gt;range &amp;lt;=AE Discount ?" style="rhombus;whiteSpace=wrap;html=1;fontSize=12;rounded=1;arcSize=14;strokeWidth=1;fillColor=#d80073;fontColor=#ffffff;strokeColor=#A50040;" parent="WIyWlLk6GJQsqaUBKTNV-1" vertex="1">
          <mxGeometry x="630" y="755" width="100" height="100" as="geometry" />
        </mxCell>
        <mxCell id="JqkhvgP3lDVbGr0tkGKe-14" value="No" style="edgeStyle=orthogonalEdgeStyle;rounded=0;orthogonalLoop=1;jettySize=auto;html=1;exitX=0;exitY=0.5;exitDx=0;exitDy=0;entryX=0;entryY=0.5;entryDx=0;entryDy=0;" edge="1" parent="WIyWlLk6GJQsqaUBKTNV-1" source="JqkhvgP3lDVbGr0tkGKe-6" target="Bv1pG6rDbhh4RcwNzwZb-7">
          <mxGeometry relative="1" as="geometry">
            <Array as="points">
              <mxPoint x="985" y="903" />
              <mxPoint x="920" y="903" />
              <mxPoint x="920" y="435" />
            </Array>
          </mxGeometry>
        </mxCell>
        <mxCell id="JqkhvgP3lDVbGr0tkGKe-16" value="Yes" style="edgeStyle=orthogonalEdgeStyle;rounded=0;orthogonalLoop=1;jettySize=auto;html=1;exitX=0.5;exitY=1;exitDx=0;exitDy=0;" edge="1" parent="WIyWlLk6GJQsqaUBKTNV-1" source="JqkhvgP3lDVbGr0tkGKe-6" target="CEy67A7VbpGF-3hFrqcU-15">
          <mxGeometry relative="1" as="geometry" />
        </mxCell>
        <mxCell id="JqkhvgP3lDVbGr0tkGKe-6" value="AE, &lt;br&gt;AE Support, &amp;amp;&lt;br&gt;Management &lt;br&gt;Approve&lt;br&gt;&amp;nbsp;this SO ?" style="rhombus;whiteSpace=wrap;html=1;fontSize=13;fillColor=#d80073;strokeColor=#A50040;fontColor=#ffffff;rounded=1;arcSize=14;strokeWidth=1;" vertex="1" parent="WIyWlLk6GJQsqaUBKTNV-1">
          <mxGeometry x="985" y="827" width="160" height="145" as="geometry" />
        </mxCell>
        <mxCell id="JqkhvgP3lDVbGr0tkGKe-26" value="Yes" style="edgeStyle=orthogonalEdgeStyle;rounded=0;orthogonalLoop=1;jettySize=auto;html=1;exitX=0;exitY=0.5;exitDx=0;exitDy=0;entryX=0;entryY=0.5;entryDx=0;entryDy=0;" edge="1" parent="WIyWlLk6GJQsqaUBKTNV-1" source="JqkhvgP3lDVbGr0tkGKe-9" target="8EcOTREGMyz1jMZO3tZU-37">
          <mxGeometry x="-0.6339" relative="1" as="geometry">
            <mxPoint as="offset" />
          </mxGeometry>
        </mxCell>
        <mxCell id="JqkhvgP3lDVbGr0tkGKe-27" value="No" style="edgeStyle=orthogonalEdgeStyle;rounded=0;orthogonalLoop=1;jettySize=auto;html=1;exitX=1;exitY=0.5;exitDx=0;exitDy=0;entryX=1;entryY=0.5;entryDx=0;entryDy=0;" edge="1" parent="WIyWlLk6GJQsqaUBKTNV-1" source="JqkhvgP3lDVbGr0tkGKe-9" target="CEy67A7VbpGF-3hFrqcU-19">
          <mxGeometry x="-0.8628" relative="1" as="geometry">
            <mxPoint as="offset" />
          </mxGeometry>
        </mxCell>
        <mxCell id="JqkhvgP3lDVbGr0tkGKe-9" value="Revisi Price List" style="rhombus;whiteSpace=wrap;html=1;fontSize=13;fillColor=#d80073;strokeColor=#A50040;fontColor=#ffffff;rounded=1;arcSize=14;strokeWidth=1;" vertex="1" parent="WIyWlLk6GJQsqaUBKTNV-1">
          <mxGeometry x="405" y="1255" width="140" height="133" as="geometry" />
        </mxCell>
      </root>
    </mxGraphModel>
  </diagram>
</mxfile>
